<?xml version="1.0" encoding="UTF-8"?>
<svg version="1.1" xmlns="http://www.w3.org/2000/svg" width="46" height="88">
<path d="M0 0 C4.62 0 9.24 0 14 0 C14 3.96 14 7.92 14 12 C19.28 12 24.56 12 30 12 C30 15.63 30 19.26 30 23 C24.72 23 19.44 23 14 23 C14.02320312 25.39636719 14.04640625 27.79273438 14.0703125 30.26171875 C14.08592578 32.59171011 14.09806096 34.92169557 14.10986328 37.25170898 C14.11989896 38.86664453 14.13353051 40.481562 14.15087891 42.09643555 C14.17523465 44.42240875 14.18650747 46.74814095 14.1953125 49.07421875 C14.20563507 49.79212082 14.21595764 50.51002289 14.22659302 51.24967957 C14.22775274 56.47265166 13.52752987 60.09058767 10.25 64.1875 C4.6757319 68.67788264 -1.17902553 68.18435066 -8 68 C-8 64.04 -8 60.08 -8 56 C-7.030625 55.855625 -6.06125 55.71125 -5.0625 55.5625 C-2.13513227 55.32437659 -2.13513227 55.32437659 -1 54 C-0.84111908 51.71011219 -0.74861927 49.41556559 -0.68359375 47.12109375 C-0.66281265 46.4344313 -0.64203156 45.74776886 -0.62062073 45.04029846 C-0.55505857 42.83947065 -0.49620985 40.63852025 -0.4375 38.4375 C-0.39432108 36.94855486 -0.350707 35.45962227 -0.30664062 33.97070312 C-0.1985485 30.31392608 -0.09952626 26.65706053 0 23 C-5.28 23 -10.56 23 -16 23 C-16 19.37 -16 15.74 -16 12 C-10.72 12 -5.44 12 0 12 C0 8.04 0 4.08 0 0 Z " fill="#7CA85C" transform="translate(16,20)"/>
<path d="M0 0 C3.06243788 0.04948284 4.03476301 0.21322096 6.6875 1.9375 C8.64312482 5.03390596 8.78774477 6.71103135 8.1875 10.3125 C6.625 12.6875 6.625 12.6875 4.1875 14.3125 C0.49736503 14.77376687 -1.84209229 14.79770386 -5.1875 13.125 C-7.28365817 10.78697742 -7.73772941 9.45286487 -7.8125 6.3125 C-4.85523504 0.39797009 -4.85523504 0.39797009 0 0 Z " fill="#7CA75C" transform="translate(22.8125,-0.3125)"/>
</svg>
